<svg width="1339" height="453" viewBox="0 0 1339 453" fill="none" xmlns="http://www.w3.org/2000/svg">
<rect width="1339" height="453" rx="37" fill="black"/>
<path d="M510.01 295V156.818H564.527C575.008 156.818 583.936 158.82 591.313 162.823C598.69 166.781 604.313 172.292 608.181 179.354C612.094 186.371 614.051 194.467 614.051 203.643C614.051 212.82 612.072 220.916 608.114 227.933C604.155 234.95 598.42 240.415 590.908 244.329C583.442 248.242 574.4 250.199 563.785 250.199H529.037V226.786H559.062C564.684 226.786 569.317 225.819 572.961 223.885C576.649 221.906 579.393 219.184 581.192 215.721C583.037 212.212 583.959 208.187 583.959 203.643C583.959 199.055 583.037 195.052 581.192 191.634C579.393 188.17 576.649 185.494 572.961 183.604C569.272 181.67 564.594 180.703 558.927 180.703H539.225V295H510.01ZM659.257 296.957C652.645 296.957 646.752 295.81 641.58 293.516C636.407 291.177 632.313 287.736 629.3 283.192C626.331 278.604 624.847 272.892 624.847 266.055C624.847 260.297 625.904 255.462 628.018 251.548C630.132 247.635 633.011 244.486 636.654 242.102C640.298 239.718 644.436 237.919 649.069 236.705C653.747 235.49 658.65 234.635 663.778 234.141C669.805 233.511 674.663 232.926 678.352 232.386C682.04 231.802 684.716 230.947 686.381 229.822C688.045 228.698 688.877 227.034 688.877 224.83V224.425C688.877 220.152 687.528 216.845 684.829 214.506C682.175 212.167 678.397 210.998 673.494 210.998C668.321 210.998 664.205 212.145 661.146 214.439C658.088 216.688 656.063 219.522 655.074 222.94L628.49 220.781C629.839 214.484 632.493 209.041 636.452 204.453C640.41 199.82 645.515 196.267 651.768 193.793C658.065 191.274 665.352 190.014 673.629 190.014C679.386 190.014 684.896 190.689 690.159 192.038C695.467 193.388 700.167 195.479 704.261 198.313C708.399 201.147 711.66 204.79 714.044 209.244C716.428 213.652 717.62 218.937 717.62 225.099V295H690.362V280.629H689.552C687.888 283.867 685.661 286.723 682.872 289.197C680.083 291.626 676.732 293.538 672.819 294.933C668.906 296.282 664.385 296.957 659.257 296.957ZM667.489 277.12C671.717 277.12 675.45 276.288 678.689 274.624C681.928 272.914 684.469 270.62 686.313 267.741C688.157 264.863 689.08 261.602 689.08 257.958V246.96C688.18 247.545 686.943 248.085 685.369 248.58C683.839 249.029 682.107 249.457 680.173 249.862C678.239 250.221 676.305 250.559 674.371 250.874C672.437 251.143 670.682 251.391 669.108 251.616C665.734 252.111 662.788 252.898 660.269 253.977C657.75 255.057 655.794 256.519 654.399 258.363C653.005 260.162 652.308 262.411 652.308 265.11C652.308 269.023 653.724 272.015 656.558 274.084C659.437 276.108 663.08 277.12 667.489 277.12ZM768.662 156.818V295H739.919V156.818H768.662ZM838.917 297.024C828.257 297.024 819.08 294.865 811.389 290.547C803.742 286.184 797.849 280.021 793.711 272.06C789.573 264.053 787.504 254.585 787.504 243.654C787.504 232.994 789.573 223.638 793.711 215.586C797.849 207.534 803.674 201.259 811.186 196.761C818.743 192.263 827.604 190.014 837.77 190.014C844.607 190.014 850.972 191.116 856.865 193.32C862.802 195.479 867.975 198.741 872.383 203.104C876.836 207.467 880.3 212.955 882.774 219.567C885.248 226.134 886.485 233.826 886.485 242.642V250.536H798.974V232.724H859.428C859.428 228.585 858.529 224.92 856.73 221.726C854.93 218.532 852.434 216.036 849.24 214.237C846.092 212.392 842.426 211.47 838.242 211.47C833.879 211.47 830.011 212.482 826.637 214.506C823.309 216.486 820.7 219.162 818.811 222.536C816.921 225.864 815.954 229.575 815.909 233.668V250.604C815.909 255.732 816.854 260.162 818.743 263.896C820.677 267.629 823.399 270.508 826.907 272.532C830.416 274.556 834.576 275.568 839.389 275.568C842.583 275.568 845.507 275.118 848.161 274.219C850.815 273.319 853.086 271.97 854.975 270.17C856.865 268.371 858.304 266.167 859.294 263.558L885.877 265.312C884.528 271.7 881.762 277.277 877.578 282.045C873.44 286.768 868.087 290.457 861.52 293.111C854.998 295.72 847.463 297.024 838.917 297.024ZM960.366 191.364V212.955H897.955V191.364H960.366ZM912.124 166.534H940.867V263.153C940.867 265.807 941.271 267.876 942.081 269.361C942.891 270.8 944.015 271.812 945.455 272.397C946.939 272.982 948.648 273.274 950.583 273.274C951.932 273.274 953.281 273.162 954.631 272.937C955.98 272.667 957.015 272.464 957.735 272.33L962.255 293.718C960.816 294.168 958.792 294.685 956.183 295.27C953.574 295.9 950.403 296.282 946.669 296.417C939.742 296.687 933.67 295.765 928.452 293.651C923.279 291.536 919.253 288.253 916.374 283.8C913.496 279.347 912.079 273.724 912.124 266.932V166.534ZM1034.21 191.364V212.955H971.802V191.364H1034.21ZM985.971 166.534H1014.71V263.153C1014.71 265.807 1015.12 267.876 1015.93 269.361C1016.74 270.8 1017.86 271.812 1019.3 272.397C1020.79 272.982 1022.5 273.274 1024.43 273.274C1025.78 273.274 1027.13 273.162 1028.48 272.937C1029.83 272.667 1030.86 272.464 1031.58 272.33L1036.1 293.718C1034.66 294.168 1032.64 294.685 1030.03 295.27C1027.42 295.9 1024.25 296.282 1020.52 296.417C1013.59 296.687 1007.52 295.765 1002.3 293.651C997.127 291.536 993.101 288.253 990.222 283.8C987.343 279.347 985.926 273.724 985.971 266.932V166.534ZM1099.05 297.024C1088.39 297.024 1079.22 294.865 1071.53 290.547C1063.88 286.184 1057.99 280.021 1053.85 272.06C1049.71 264.053 1047.64 254.585 1047.64 243.654C1047.64 232.994 1049.71 223.638 1053.85 215.586C1057.99 207.534 1063.81 201.259 1071.32 196.761C1078.88 192.263 1087.74 190.014 1097.91 190.014C1104.74 190.014 1111.11 191.116 1117 193.32C1122.94 195.479 1128.11 198.741 1132.52 203.104C1136.97 207.467 1140.44 212.955 1142.91 219.567C1145.38 226.134 1146.62 233.826 1146.62 242.642V250.536H1059.11V232.724H1119.57C1119.57 228.585 1118.67 224.92 1116.87 221.726C1115.07 218.532 1112.57 216.036 1109.38 214.237C1106.23 212.392 1102.56 211.47 1098.38 211.47C1094.02 211.47 1090.15 212.482 1086.77 214.506C1083.45 216.486 1080.84 219.162 1078.95 222.536C1077.06 225.864 1076.09 229.575 1076.05 233.668V250.604C1076.05 255.732 1076.99 260.162 1078.88 263.896C1080.81 267.629 1083.54 270.508 1087.04 272.532C1090.55 274.556 1094.71 275.568 1099.53 275.568C1102.72 275.568 1105.64 275.118 1108.3 274.219C1110.95 273.319 1113.22 271.97 1115.11 270.17C1117 268.371 1118.44 266.167 1119.43 263.558L1146.01 265.312C1144.66 271.7 1141.9 277.277 1137.72 282.045C1133.58 286.768 1128.22 290.457 1121.66 293.111C1115.13 295.72 1107.6 297.024 1099.05 297.024Z" fill="white"/>
<path d="M379.497 170.282C381.632 168.339 381.711 165.006 379.669 162.965L352.298 135.593C350.16 133.456 346.638 133.658 344.759 136.025L279.052 218.808C277.5 220.763 277.606 223.558 279.302 225.39L294.023 241.288C295.909 243.326 299.085 243.462 301.139 241.593L379.497 170.282ZM254.965 232.587C235.12 232.587 230.358 249.064 230.264 269.599C230.262 270.015 230.21 270.444 230.103 270.846C225.591 287.787 213.702 293.004 204.461 294.611C200.39 295.319 198.114 299.931 201.073 302.815C212.291 313.75 227.836 320.419 242.888 320.419C269.578 320.419 291.196 297.961 291.196 270.229C291.196 249.402 275.013 232.587 254.965 232.587Z" fill="white"/>
</svg>
